<?xml version="1.0" encoding="UTF-8"?>
<svg xmlns="http://www.w3.org/2000/svg" viewBox="16 25 266 266" preserveAspectRatio="xMidYMid meet">
<g transform="translate(0,335) scale(0.1,-0.1)" fill="currentColor" stroke="none">
<path d="M1511 3023 c-21 -4 -23 -8 -17 -46 3 -23 8 -113 12 -199 l7 -158 35 0 35 0 -7 168 c-8 193 -14 243 -30 241 -6 -1 -22 -4 -35 -6z"/>
<path d="M1348 2943 c-10 -2 -18 -9 -18 -15 0 -11 81 -330 85 -336 1 -1 16 3 34 9 22 8 31 17 29 28 -3 9 -22 85 -43 169 -40 157 -41 157 -87 145z"/>
<path d="M1656 2903 c-3 -10 -12 -67 -21 -128 -9 -60 -18 -120 -20 -131 -4 -18 1 -23 27 -28 17 -3 33 -4 35 -2 2 2 13 59 24 127 10 68 22 136 25 152 5 25 3 27 -30 27 -24 0 -36 -5 -40 -17z"/>
<path d="M1756 2739 c-26 -72 -46 -132 -44 -133 7 -5 59 -26 63 -26 3 0 5 5 5 11 0 9 52 158 85 240 4 11 0 18 -12 22 -10 2 -25 8 -33 11 -12 5 -26 -21 -64 -125z"/>
<path d="M1218 2822 l-27 -16 66 -127 66 -127 31 15 31 15 -65 129 c-36 71 -67 129 -70 128 -3 0 -17 -8 -32 -17z"/>
<path d="M1870 2693 l-72 -116 23 -18 c13 -10 27 -19 30 -19 4 0 39 52 79 117 55 89 68 118 58 125 -46 31 -43 33 -118 -89z"/>
<path d="M1985 2643 c-117 -129 -113 -121 -84 -141 13 -9 26 -17 29 -17 3 0 47 45 97 101 l92 101 -22 22 c-13 11 -25 21 -28 21 -2 0 -40 -39 -84 -87z"/>
<path d="M1138 2674 l-26 -27 66 -77 65 -78 29 21 c24 18 26 23 15 36 -14 17 -107 131 -117 143 -3 4 -17 -4 -32 -18z"/>
<path d="M1003 2600 l-23 -28 91 -72 c50 -39 96 -73 102 -75 11 -4 54 43 45 49 -6 4 -153 120 -173 137 -19 16 -21 15 -42 -11z"/>
<path d="M2038 2532 c-48 -37 -87 -69 -87 -72 0 -3 8 -16 18 -29 l18 -23 94 67 c52 37 96 69 97 71 7 5 -33 53 -43 53 -5 0 -49 -31 -97 -67z"/>
<path d="M2168 2467 l-167 -82 15 -27 c8 -16 16 -28 18 -28 8 0 327 148 334 155 4 3 -27 66 -31 64 -1 0 -77 -37 -169 -82z"/>
<path d="M954 2458 c-9 -17 -14 -31 -12 -33 2 -1 45 -23 95 -49 l93 -46 15 31 c9 17 15 32 13 34 -2 2 -45 23 -96 48 l-93 44 -15 -29z"/>
<path d="M1610 2373 c-63 -47 -148 -109 -187 -137 l-73 -53 68 -48 c37 -27 120 -89 185 -137 65 -48 119 -88 121 -88 1 0 2 23 2 51 l-1 51 -117 86 -117 85 77 56 c42 31 96 70 119 86 41 29 43 32 43 83 0 28 -1 52 -2 51 -2 0 -55 -39 -118 -86z"/>
<path d="M2260 2355 c-96 -24 -186 -44 -199 -44 -17 -1 -22 -5 -17 -17 3 -9 6 -25 6 -36 0 -18 4 -19 38 -13 59 11 375 84 379 88 8 8 -10 67 -21 66 -6 -1 -90 -21 -186 -44z"/>
<path d="M857 2363 c-2 -4 -7 -20 -11 -35 -7 -31 -3 -32 144 -63 41 -8 82 -18 91 -21 12 -3 20 5 28 27 6 18 10 33 8 35 -1 1 -52 14 -112 28 -61 13 -117 27 -126 31 -10 3 -19 3 -22 -2z"/>
<path d="M690 2180 l0 -35 202 2 203 2 0 31 0 30 -203 3 -202 2 0 -35z"/>
<path d="M2063 2203 c-3 -6 -3 -21 -1 -33 3 -20 8 -21 171 -23 l167 -2 0 35 0 35 -166 0 c-119 0 -168 -3 -171 -12z"/>
<path d="M910 2081 c-171 -39 -180 -44 -163 -87 8 -20 11 -20 183 19 96 22 176 40 178 42 7 6 -12 65 -22 64 -6 0 -85 -17 -176 -38z"/>
<path d="M1013 1984 l-93 -45 17 -27 c9 -15 18 -28 18 -30 1 -1 45 18 98 42 l96 45 -15 30 c-9 17 -19 31 -22 30 -4 0 -49 -21 -99 -45z"/>
<path d="M1048 1868 l-108 -80 21 -29 20 -28 109 81 109 82 -17 28 c-9 15 -19 28 -22 27 -3 0 -53 -37 -112 -81z"/>
<path d="M1088 1737 l-127 -142 25 -23 24 -23 48 53 c27 29 84 93 127 141 l78 89 -24 23 -24 24 -127 -142z"/>
<path d="M1921 1858 c-5 -13 -38 -87 -74 -164 l-64 -142 32 -15 31 -15 67 149 c37 82 70 155 73 163 4 9 -6 20 -25 31 -30 15 -32 15 -40 -7z"/>
<path d="M1230 1733 l-53 -86 24 -18 c13 -10 26 -19 29 -19 4 0 98 148 108 172 2 4 -10 14 -26 22 l-30 15 -52 -86z"/>
<path d="M1301 1608 c-34 -93 -61 -171 -59 -173 2 -1 17 -6 33 -9 l30 -7 59 166 c32 91 57 167 55 168 -2 2 -16 8 -30 14 l-27 12 -61 -171z"/>
<path d="M1735 1758 c-45 -197 -44 -188 -24 -190 53 -4 51 -7 74 95 12 54 19 99 16 101 -3 2 -18 6 -33 10 -23 5 -28 3 -33 -16z"/>
<path d="M1445 1736 c-1 -6 -9 -53 -17 -103 l-15 -93 23 0 c12 0 29 -2 37 -5 11 -5 15 8 21 57 3 35 9 82 12 104 6 41 6 41 -26 46 -18 3 -33 0 -35 -6z"/>
<path d="M1544 1709 c3 -17 6 -56 6 -85 l0 -54 35 0 c40 0 40 1 29 109 l-7 61 -35 0 c-33 0 -34 -1 -28 -31z"/>
<path d="M2150 1658 c-216 -203 -211 -198 -192 -224 9 -13 19 -24 23 -24 3 0 52 44 110 99 57 54 119 111 137 126 l33 28 -22 23 c-12 13 -25 24 -28 24 -3 0 -31 -24 -61 -52z"/>
<path d="M1928 1600 l-66 -90 28 -20 29 -20 23 32 c13 18 43 59 67 91 l42 58 -23 19 c-13 11 -25 19 -28 20 -3 0 -35 -40 -72 -90z"/>
<path d="M2113 1463 c-62 -37 -113 -71 -113 -76 0 -4 7 -18 15 -31 l16 -24 114 70 c63 38 115 73 115 76 0 4 -8 17 -18 29 l-17 23 -112 -67z"/>
<path d="M2157 1356 c-113 -39 -118 -42 -112 -66 4 -14 9 -28 13 -32 4 -3 61 12 128 34 l120 40 -10 34 c-6 19 -13 33 -16 33 -3 -1 -58 -20 -123 -43z"/>
<path d="M2300 1258 c-264 -31 -237 -23 -232 -63 4 -29 8 -34 26 -30 11 2 98 12 191 21 94 10 173 20 176 23 3 3 3 20 0 36 l-6 31 -155 -18z"/>
<path d="M1075 1174 c-20 -6 -324 -44 -355 -44 -32 0 -32 0 -25 -37 4 -21 8 -39 8 -39 1 -1 76 9 167 22 91 13 180 23 198 24 33 0 33 0 26 38 -8 43 -6 40 -19 36z"/>
<path d="M2068 1114 c-3 -29 -1 -34 22 -38 21 -5 270 -36 283 -36 3 0 7 15 9 34 l4 34 -106 12 c-58 7 -128 15 -157 19 l-51 8 -4 -33z"/>
<path d="M982 1036 c-63 -23 -113 -45 -113 -49 2 -22 14 -57 20 -57 4 0 59 19 122 43 l115 42 -9 33 c-6 17 -13 32 -16 31 -3 -1 -57 -20 -119 -43z"/>
<path d="M2049 1034 c-5 -14 -9 -29 -9 -33 0 -8 380 -146 383 -139 2 1 7 17 13 33 l11 31 -194 66 -194 67 -10 -25z"/>
<path d="M968 882 c-174 -109 -170 -105 -139 -151 7 -11 43 7 175 90 91 57 166 109 166 114 0 6 -8 19 -18 31 -17 21 -17 21 -184 -84z"/>
<path d="M2006 947 c-9 -16 -15 -30 -14 -31 2 -1 51 -32 110 -68 l107 -66 15 23 c9 14 16 28 16 32 0 9 -39 35 -144 97 l-72 43 -18 -30z"/>
<path d="M1094 810 l-101 -99 26 -25 27 -26 99 100 100 100 -25 24 -25 25 -101 -99z"/>
<path d="M1949 874 l-24 -25 70 -67 c39 -36 103 -98 143 -136 l72 -71 25 26 25 25 -72 70 c-40 38 -105 100 -144 137 l-71 67 -24 -26z"/>
<path d="M1196 737 l-68 -101 28 -22 27 -22 69 99 c37 55 68 103 68 107 0 4 -12 15 -27 24 l-28 16 -69 -101z"/>
<path d="M1871 811 l-23 -18 111 -167 112 -167 29 21 30 21 -111 162 c-60 89 -113 163 -117 164 -4 2 -18 -6 -31 -16z"/>
<path d="M1296 651 c-31 -72 -56 -132 -56 -134 0 -10 64 -30 67 -21 2 5 28 65 57 134 l53 125 -30 13 c-16 6 -30 12 -32 12 -1 0 -28 -58 -59 -129z"/>
<path d="M1780 767 c-14 -6 -26 -11 -27 -12 -2 -1 17 -48 42 -106 46 -108 51 -112 96 -88 15 8 12 21 -29 114 -25 58 -48 105 -51 104 -3 0 -17 -5 -31 -12z"/>
<path d="M1450 747 c0 -1 -11 -52 -24 -114 l-23 -112 28 -6 c16 -4 32 -6 36 -6 5 0 54 221 49 221 -1 0 -16 4 -34 9 -17 5 -32 9 -32 8z"/>
<path d="M1667 733 c-10 -3 -16 -11 -13 -18 2 -7 17 -74 32 -149 25 -127 28 -136 50 -136 56 0 56 -1 -11 288 -5 22 -19 25 -58 15z"/>
<path d="M1550 527 l0 -203 35 0 35 0 0 203 0 203 -35 0 -35 0 0 -203z"/>
</g>
</svg>
